<svg width="100" height="100" viewBox="0 0 100 100" fill="none" xmlns="http://www.w3.org/2000/svg">
<path d="M33.3326 8.33334L66.6621 8.33334V4.76837e-06L33.3326 4.76837e-06V8.33334Z" fill="#0E0E0E"/>
<path d="M91.666 33.3296V66.6629H99.9994V33.3296H91.666Z" fill="#0E0E0E"/>
<path d="M0 33.3296L0 66.6629H8.33334L8.33334 33.3296H0Z" fill="#0E0E0E"/>
<path d="M24.9967 16.6667H33.3301V8.33332L24.9967 8.33332V16.6667Z" fill="#0E0E0E"/>
<path d="M66.6635 91.663H33.334V99.9963H66.6635V91.663Z" fill="#0E0E0E"/>
<path d="M33.3333 83.3296H25V91.6629H33.3333V83.3296Z" fill="#0E0E0E"/>
<path d="M41.6673 74.9963H33.334V91.6629H41.6673V74.9963Z" fill="#0E0E0E"/>
<path d="M24.9994 75.0001H16.666V83.3334H24.9994V75.0001Z" fill="#0E0E0E"/>
<path d="M24.9994 16.6667H16.666V25H24.9994V16.6667Z" fill="#0E0E0E"/>
<path d="M16.6654 25.0001H8.33203V33.3334H16.6654V25.0001Z" fill="#0E0E0E"/>
<path d="M50.0006 49.9962H58.334V41.6629H50.0006V49.9962Z" fill="#0E0E0E"/>
<path d="M49.9954 49.9962H41.6621V58.3296H49.9954V49.9962Z" fill="#0E0E0E"/>
<path d="M16.6654 49.9962H8.33203V58.3295H16.6654V49.9962Z" fill="#0E0E0E"/>
<path d="M66.6673 75.0001H58.334V83.3334H66.6673V75.0001Z" fill="#0E0E0E"/>
<path d="M74.9994 83.3296H66.666V91.6629H74.9994V83.3296Z" fill="#0E0E0E"/>
<path d="M66.6628 16.6667H74.9961V8.33332L66.6628 8.33332V16.6667Z" fill="#0E0E0E"/>
<path d="M74.9967 58.3296H83.3301V41.6629H74.9967V58.3296Z" fill="#0E0E0E"/>
<path d="M74.9967 25.0001H83.3301V16.6667H74.9967V25.0001Z" fill="#0E0E0E"/>
<path d="M83.3327 33.3296H91.666V24.9962H83.3327V33.3296Z" fill="#0E0E0E"/>
<path d="M58.3327 41.6629L91.666 41.6629V33.3296H58.3327V41.6629Z" fill="#0E0E0E"/>
<path d="M24.9993 41.6629H41.666V33.3296H24.9993V41.6629Z" fill="#0E0E0E"/>
<path d="M49.9993 25.0001L66.666 25.0001V16.6667H49.9993V25.0001Z" fill="#0E0E0E"/>
<path d="M33.3294 74.9963H49.9961V66.6629H33.3294V74.9963Z" fill="#0E0E0E"/>
<path d="M74.9967 83.3296H83.3301V74.9962H74.9967V83.3296Z" fill="#0E0E0E"/>
<path d="M83.3327 74.9963H91.666V66.6629H83.3327V74.9963Z" fill="#0E0E0E"/>
<path d="M8.33268 74.9963H16.666V66.6629H8.33268L8.33268 74.9963Z" fill="#0E0E0E"/>
</svg>
