<svg width="75" height="100" viewBox="0 0 75 100" fill="none" xmlns="http://www.w3.org/2000/svg">
<path d="M0.000630379 100H8.33398L8.33398 4.57764e-05H0.000630379L0.000630379 100Z" fill="#0E0E0E"/>
<path d="M0.00390625 91.6667L0.00390625 100H58.3372V91.6667H0.00390625Z" fill="#0E0E0E"/>
<path d="M0.00390625 8.33332L0.00390625 16.6666L70.8372 16.6666V8.33332L0.00390625 8.33332Z" fill="#0E0E0E"/>
<path d="M16.6719 33.3333V41.6666H41.6719V33.3333H16.6719Z" fill="#0E0E0E"/>
<path d="M16.6719 50V58.3334H58.3385V50H16.6719Z" fill="#0E0E0E"/>
<path d="M66.6667 83.3333H75L75 1.52588e-05H66.6667L66.6667 83.3333Z" fill="#0E0E0E"/>
<path d="M58.3347 91.6629H66.668V83.3296H58.3347V91.6629Z" fill="#0E0E0E"/>
<path d="M50.0052 74.9962H66.6719V66.6629H50.0052V74.9962Z" fill="#0E0E0E"/>
<path d="M41.6719 66.6667V91.6667H50.0052V66.6667H41.6719Z" fill="#0E0E0E"/>
<path d="M33.3385 25.0001H41.6719V7.24792e-05H33.3385V25.0001Z" fill="#0E0E0E"/>
<path d="M50.0045 25.0001H58.3379V7.24792e-05H50.0045V25.0001Z" fill="#0E0E0E"/>
<path d="M16.6725 25.0001H25.0059L25.0059 7.24792e-05H16.6725L16.6725 25.0001Z" fill="#0E0E0E"/>
</svg>
