<svg width="36" height="30" viewBox="0 0 36 30" fill="none" xmlns="http://www.w3.org/2000/svg">
<path d="M6 7.50027V10.5004L21.0005 10.5004V7.50027L6 7.50027Z" fill="#0E0E0E"/>
<path d="M6 13.5004V16.5005H27.0006V13.5004L6 13.5004Z" fill="#0E0E0E"/>
<path d="M2.9999 6.00024H6V3.00015L2.9999 3.00015L2.9999 6.00024Z" fill="#0E0E0E"/>
<path d="M-8.32081e-05 18.0006H3L3 6.00024H-8.32081e-05L-8.32081e-05 18.0006Z" fill="#0E0E0E"/>
<path d="M32.9999 18.0006H36V6.00024H32.9999V18.0006Z" fill="#0E0E0E"/>
<path d="M29.9999 6.00024H33V3.00015L29.9999 3.00015V6.00024Z" fill="#0E0E0E"/>
<path d="M2.9999 20.9993H6V17.9992H2.9999L2.9999 20.9993Z" fill="#0E0E0E"/>
<path d="M29.9999 20.9993H33V17.9992H29.9999V20.9993Z" fill="#0E0E0E"/>
<path d="M5.99928 3.00012L30 3.00012V3.02792e-05L5.99928 3.02792e-05V3.00012Z" fill="#0E0E0E"/>
<path d="M5.99992 23.9994H9V20.9993H5.99992V23.9994Z" fill="#0E0E0E"/>
<path d="M11.9999 26.9995H15V23.9994H11.9999V26.9995Z" fill="#0E0E0E"/>
<path d="M8.99992 29.9996H12V26.9995H8.99992V29.9996Z" fill="#0E0E0E"/>
<path d="M11.9994 23.9994L30 23.9994V20.9993L11.9994 20.9993V23.9994Z" fill="#0E0E0E"/>
</svg>
