<svg width="264" height="264" viewBox="0 0 264 264" fill="none" xmlns="http://www.w3.org/2000/svg">
<path d="M33.1498 263.53H55.0898L55.0898 0.250031H33.1498L33.1498 263.53Z" fill="#B2BBB9"/>
<path d="M33.1602 241.59V263.53H186.74V241.59H33.1602Z" fill="#B2BBB9"/>
<path d="M33.1602 22.1899V44.1299L219.65 44.1299V22.1899L33.1602 22.1899Z" fill="#B2BBB9"/>
<path d="M77.04 88.01V109.95H142.86V88.01H77.04Z" fill="#B2BBB9"/>
<path d="M77.04 131.89V153.83H186.74V131.89H77.04Z" fill="#B2BBB9"/>
<path d="M208.669 219.65H230.609L230.609 0.249908H208.669L208.669 219.65Z" fill="#B2BBB9"/>
<path d="M186.73 241.58H208.67V219.64H186.73V241.58Z" fill="#B2BBB9"/>
<path d="M164.8 197.7H208.68V175.76H164.8V197.7Z" fill="#B2BBB9"/>
<path d="M142.86 175.77V241.59H164.8V175.77H142.86Z" fill="#B2BBB9"/>
<path d="M120.92 66.0701H142.86V0.250069H120.92V66.0701Z" fill="#B2BBB9"/>
<path d="M164.8 66.0701H186.74V0.250069H164.8V66.0701Z" fill="#B2BBB9"/>
<path d="M77.0404 66.0701H98.9805L98.9805 0.250069H77.0404V66.0701Z" fill="#B2BBB9"/>
<path opacity="0.5" d="M0.25 0.25H263.52" stroke="#0E0E0E" stroke-width="0.5" stroke-miterlimit="10"/>
<path opacity="0.5" d="M0.25 11.22H263.52" stroke="#0E0E0E" stroke-width="0.5" stroke-miterlimit="10"/>
<path opacity="0.5" d="M0.25 22.19H263.52" stroke="#0E0E0E" stroke-width="0.5" stroke-miterlimit="10"/>
<path opacity="0.5" d="M0.25 33.16H263.52" stroke="#0E0E0E" stroke-width="0.5" stroke-miterlimit="10"/>
<path opacity="0.5" d="M0.25 44.13H263.52" stroke="#0E0E0E" stroke-width="0.5" stroke-miterlimit="10"/>
<path opacity="0.5" d="M0.25 55.1H263.52" stroke="#0E0E0E" stroke-width="0.5" stroke-miterlimit="10"/>
<path opacity="0.5" d="M0.25 66.07H263.52" stroke="#0E0E0E" stroke-width="0.5" stroke-miterlimit="10"/>
<path opacity="0.5" d="M0.25 77.04H263.52" stroke="#0E0E0E" stroke-width="0.5" stroke-miterlimit="10"/>
<path opacity="0.5" d="M0.25 88.01H263.52" stroke="#0E0E0E" stroke-width="0.5" stroke-miterlimit="10"/>
<path opacity="0.5" d="M0.25 98.98H263.52" stroke="#0E0E0E" stroke-width="0.5" stroke-miterlimit="10"/>
<path opacity="0.5" d="M0.25 109.95H263.52" stroke="#0E0E0E" stroke-width="0.5" stroke-miterlimit="10"/>
<path opacity="0.5" d="M0.25 120.92H263.52" stroke="#0E0E0E" stroke-width="0.5" stroke-miterlimit="10"/>
<path opacity="0.5" d="M0.25 131.89H263.52" stroke="#0E0E0E" stroke-width="0.5" stroke-miterlimit="10"/>
<path opacity="0.5" d="M0.25 142.86H263.52" stroke="#0E0E0E" stroke-width="0.5" stroke-miterlimit="10"/>
<path opacity="0.5" d="M0.25 153.83H263.52" stroke="#0E0E0E" stroke-width="0.5" stroke-miterlimit="10"/>
<path opacity="0.5" d="M0.25 164.8H263.52" stroke="#0E0E0E" stroke-width="0.5" stroke-miterlimit="10"/>
<path opacity="0.5" d="M0.25 175.77H263.52" stroke="#0E0E0E" stroke-width="0.5" stroke-miterlimit="10"/>
<path opacity="0.5" d="M0.25 186.74H263.52" stroke="#0E0E0E" stroke-width="0.5" stroke-miterlimit="10"/>
<path opacity="0.5" d="M0.25 197.71H263.52" stroke="#0E0E0E" stroke-width="0.5" stroke-miterlimit="10"/>
<path opacity="0.5" d="M0.25 208.68H263.52" stroke="#0E0E0E" stroke-width="0.5" stroke-miterlimit="10"/>
<path opacity="0.5" d="M0.25 219.65H263.52" stroke="#0E0E0E" stroke-width="0.5" stroke-miterlimit="10"/>
<path opacity="0.5" d="M0.25 230.62H263.52" stroke="#0E0E0E" stroke-width="0.5" stroke-miterlimit="10"/>
<path opacity="0.5" d="M0.25 241.59H263.52" stroke="#0E0E0E" stroke-width="0.5" stroke-miterlimit="10"/>
<path opacity="0.5" d="M0.25 252.56H263.52" stroke="#0E0E0E" stroke-width="0.5" stroke-miterlimit="10"/>
<path opacity="0.5" d="M0.25 263.53H263.52" stroke="#0E0E0E" stroke-width="0.5" stroke-miterlimit="10"/>
<path opacity="0.5" d="M263.52 0.25V263.53" stroke="#0E0E0E" stroke-width="0.5" stroke-miterlimit="10"/>
<path opacity="0.5" d="M252.551 0.25V263.53" stroke="#0E0E0E" stroke-width="0.5" stroke-miterlimit="10"/>
<path opacity="0.5" d="M241.58 0.25V263.53" stroke="#0E0E0E" stroke-width="0.5" stroke-miterlimit="10"/>
<path opacity="0.5" d="M230.609 0.25V263.53" stroke="#0E0E0E" stroke-width="0.5" stroke-miterlimit="10"/>
<path opacity="0.5" d="M219.64 0.25V263.53" stroke="#0E0E0E" stroke-width="0.5" stroke-miterlimit="10"/>
<path opacity="0.5" d="M208.67 0.25V263.53" stroke="#0E0E0E" stroke-width="0.5" stroke-miterlimit="10"/>
<path opacity="0.5" d="M197.7 0.25V263.53" stroke="#0E0E0E" stroke-width="0.5" stroke-miterlimit="10"/>
<path opacity="0.5" d="M186.73 0.25V263.53" stroke="#0E0E0E" stroke-width="0.5" stroke-miterlimit="10"/>
<path opacity="0.5" d="M175.76 0.25V263.53" stroke="#0E0E0E" stroke-width="0.5" stroke-miterlimit="10"/>
<path opacity="0.5" d="M164.79 0.25V263.53" stroke="#0E0E0E" stroke-width="0.5" stroke-miterlimit="10"/>
<path opacity="0.5" d="M153.82 0.25V263.53" stroke="#0E0E0E" stroke-width="0.5" stroke-miterlimit="10"/>
<path opacity="0.5" d="M142.85 0.25V263.53" stroke="#0E0E0E" stroke-width="0.5" stroke-miterlimit="10"/>
<path opacity="0.5" d="M131.88 0.25V263.53" stroke="#0E0E0E" stroke-width="0.5" stroke-miterlimit="10"/>
<path opacity="0.5" d="M120.91 0.25V263.53" stroke="#0E0E0E" stroke-width="0.5" stroke-miterlimit="10"/>
<path opacity="0.5" d="M109.94 0.25V263.53" stroke="#0E0E0E" stroke-width="0.5" stroke-miterlimit="10"/>
<path opacity="0.5" d="M98.9697 0.25V263.53" stroke="#0E0E0E" stroke-width="0.5" stroke-miterlimit="10"/>
<path opacity="0.5" d="M88 0.25V263.53" stroke="#0E0E0E" stroke-width="0.5" stroke-miterlimit="10"/>
<path opacity="0.5" d="M77.0303 0.25V263.53" stroke="#0E0E0E" stroke-width="0.5" stroke-miterlimit="10"/>
<path opacity="0.5" d="M66.0596 0.25V263.53" stroke="#0E0E0E" stroke-width="0.5" stroke-miterlimit="10"/>
<path opacity="0.5" d="M55.0898 0.25V263.53" stroke="#0E0E0E" stroke-width="0.5" stroke-miterlimit="10"/>
<path opacity="0.5" d="M44.1201 0.25V263.53" stroke="#0E0E0E" stroke-width="0.5" stroke-miterlimit="10"/>
<path opacity="0.5" d="M33.1602 0.25V263.53" stroke="#0E0E0E" stroke-width="0.5" stroke-miterlimit="10"/>
<path opacity="0.5" d="M22.1904 0.25V263.53" stroke="#0E0E0E" stroke-width="0.5" stroke-miterlimit="10"/>
<path opacity="0.5" d="M11.2197 0.25V263.53" stroke="#0E0E0E" stroke-width="0.5" stroke-miterlimit="10"/>
<path opacity="0.5" d="M0.25 0.25V263.53" stroke="#0E0E0E" stroke-width="0.5" stroke-miterlimit="10"/>
</svg>
