<svg width="264" height="264" viewBox="0 0 264 264" fill="none" xmlns="http://www.w3.org/2000/svg">
<path d="M88.0098 22.19L175.76 22.19V0.250002L88.0098 0.250002V22.19Z" fill="#B2BBB9"/>
<path d="M241.59 88.0001V175.76H263.53V88.0001H241.59Z" fill="#B2BBB9"/>
<path d="M0.25 88.0001L0.25 175.76H22.19L22.19 88.0001H0.25Z" fill="#B2BBB9"/>
<path d="M66.06 44.1299H88V22.1899L66.06 22.1899V44.1299Z" fill="#B2BBB9"/>
<path d="M175.76 241.58H88.0098V263.52H175.76V241.58Z" fill="#B2BBB9"/>
<path d="M88.0093 219.64H66.0693V241.58H88.0093V219.64Z" fill="#B2BBB9"/>
<path d="M109.95 197.7H88.0098V241.58H109.95V197.7Z" fill="#B2BBB9"/>
<path d="M66.0699 197.71H44.1299V219.65H66.0699V197.71Z" fill="#B2BBB9"/>
<path d="M66.0699 44.1299H44.1299V66.0699H66.0699V44.1299Z" fill="#B2BBB9"/>
<path d="M44.1295 66.0701H22.1895V88.0101H44.1295V66.0701Z" fill="#B2BBB9"/>
<path d="M131.89 131.88H153.83V109.94H131.89V131.88Z" fill="#B2BBB9"/>
<path d="M131.879 131.88H109.939V153.82H131.879V131.88Z" fill="#B2BBB9"/>
<path d="M44.1295 131.88H22.1895V153.82H44.1295V131.88Z" fill="#B2BBB9"/>
<path d="M175.77 197.71H153.83V219.65H175.77V197.71Z" fill="#B2BBB9"/>
<path d="M197.71 219.64H175.77V241.58H197.71V219.64Z" fill="#B2BBB9"/>
<path d="M175.759 44.1299H197.699V22.1899L175.759 22.1899V44.1299Z" fill="#B2BBB9"/>
<path d="M197.7 153.82H219.64V109.94H197.7V153.82Z" fill="#B2BBB9"/>
<path d="M197.7 66.0701H219.64V44.1301H197.7V66.0701Z" fill="#B2BBB9"/>
<path d="M219.65 88.0001H241.59V66.0601H219.65V88.0001Z" fill="#B2BBB9"/>
<path d="M153.83 109.94L241.59 109.94V88L153.83 88V109.94Z" fill="#B2BBB9"/>
<path d="M66.0692 109.94H109.949V88H66.0692V109.94Z" fill="#B2BBB9"/>
<path d="M131.89 66.0701H175.77V44.1301L131.89 44.1301V66.0701Z" fill="#B2BBB9"/>
<path d="M87.9999 197.7H131.88V175.76H87.9999V197.7Z" fill="#B2BBB9"/>
<path d="M197.7 219.64H219.64V197.7H197.7V219.64Z" fill="#B2BBB9"/>
<path d="M219.65 197.7H241.59V175.76H219.65V197.7Z" fill="#B2BBB9"/>
<path d="M22.1899 197.7H44.1299V175.76H22.1899L22.1899 197.7Z" fill="#B2BBB9"/>
<path opacity="0.5" d="M0.25 0.25H263.52" stroke="#0E0E0E" stroke-width="0.5" stroke-miterlimit="10"/>
<path opacity="0.5" d="M0.25 11.22H263.52" stroke="#0E0E0E" stroke-width="0.5" stroke-miterlimit="10"/>
<path opacity="0.5" d="M0.25 22.19H263.52" stroke="#0E0E0E" stroke-width="0.5" stroke-miterlimit="10"/>
<path opacity="0.5" d="M0.25 33.16H263.52" stroke="#0E0E0E" stroke-width="0.5" stroke-miterlimit="10"/>
<path opacity="0.5" d="M0.25 44.13H263.52" stroke="#0E0E0E" stroke-width="0.5" stroke-miterlimit="10"/>
<path opacity="0.5" d="M0.25 55.1H263.52" stroke="#0E0E0E" stroke-width="0.5" stroke-miterlimit="10"/>
<path opacity="0.5" d="M0.25 66.07H263.52" stroke="#0E0E0E" stroke-width="0.5" stroke-miterlimit="10"/>
<path opacity="0.5" d="M0.25 77.04H263.52" stroke="#0E0E0E" stroke-width="0.5" stroke-miterlimit="10"/>
<path opacity="0.5" d="M0.25 88.01H263.52" stroke="#0E0E0E" stroke-width="0.5" stroke-miterlimit="10"/>
<path opacity="0.5" d="M0.25 98.98H263.52" stroke="#0E0E0E" stroke-width="0.5" stroke-miterlimit="10"/>
<path opacity="0.5" d="M0.25 109.95H263.52" stroke="#0E0E0E" stroke-width="0.5" stroke-miterlimit="10"/>
<path opacity="0.5" d="M0.25 120.92H263.52" stroke="#0E0E0E" stroke-width="0.5" stroke-miterlimit="10"/>
<path opacity="0.5" d="M0.25 131.89H263.52" stroke="#0E0E0E" stroke-width="0.5" stroke-miterlimit="10"/>
<path opacity="0.5" d="M0.25 142.86H263.52" stroke="#0E0E0E" stroke-width="0.5" stroke-miterlimit="10"/>
<path opacity="0.5" d="M0.25 153.83H263.52" stroke="#0E0E0E" stroke-width="0.5" stroke-miterlimit="10"/>
<path opacity="0.5" d="M0.25 164.8H263.52" stroke="#0E0E0E" stroke-width="0.5" stroke-miterlimit="10"/>
<path opacity="0.5" d="M0.25 175.77H263.52" stroke="#0E0E0E" stroke-width="0.5" stroke-miterlimit="10"/>
<path opacity="0.5" d="M0.25 186.74H263.52" stroke="#0E0E0E" stroke-width="0.5" stroke-miterlimit="10"/>
<path opacity="0.5" d="M0.25 197.71H263.52" stroke="#0E0E0E" stroke-width="0.5" stroke-miterlimit="10"/>
<path opacity="0.5" d="M0.25 208.68H263.52" stroke="#0E0E0E" stroke-width="0.5" stroke-miterlimit="10"/>
<path opacity="0.5" d="M0.25 219.65H263.52" stroke="#0E0E0E" stroke-width="0.5" stroke-miterlimit="10"/>
<path opacity="0.5" d="M0.25 230.62H263.52" stroke="#0E0E0E" stroke-width="0.5" stroke-miterlimit="10"/>
<path opacity="0.5" d="M0.25 241.59H263.52" stroke="#0E0E0E" stroke-width="0.5" stroke-miterlimit="10"/>
<path opacity="0.5" d="M0.25 252.56H263.52" stroke="#0E0E0E" stroke-width="0.5" stroke-miterlimit="10"/>
<path opacity="0.5" d="M0.25 263.53H263.52" stroke="#0E0E0E" stroke-width="0.5" stroke-miterlimit="10"/>
<path opacity="0.5" d="M263.52 0.25V263.53" stroke="#0E0E0E" stroke-width="0.5" stroke-miterlimit="10"/>
<path opacity="0.5" d="M252.551 0.25V263.53" stroke="#0E0E0E" stroke-width="0.5" stroke-miterlimit="10"/>
<path opacity="0.5" d="M241.58 0.25V263.53" stroke="#0E0E0E" stroke-width="0.5" stroke-miterlimit="10"/>
<path opacity="0.5" d="M230.609 0.25V263.53" stroke="#0E0E0E" stroke-width="0.5" stroke-miterlimit="10"/>
<path opacity="0.5" d="M219.64 0.25V263.53" stroke="#0E0E0E" stroke-width="0.5" stroke-miterlimit="10"/>
<path opacity="0.5" d="M208.67 0.25V263.53" stroke="#0E0E0E" stroke-width="0.5" stroke-miterlimit="10"/>
<path opacity="0.5" d="M197.71 0.25V263.53" stroke="#0E0E0E" stroke-width="0.5" stroke-miterlimit="10"/>
<path opacity="0.5" d="M186.74 0.25V263.53" stroke="#0E0E0E" stroke-width="0.5" stroke-miterlimit="10"/>
<path opacity="0.5" d="M175.77 0.25V263.53" stroke="#0E0E0E" stroke-width="0.5" stroke-miterlimit="10"/>
<path opacity="0.5" d="M164.8 0.25V263.53" stroke="#0E0E0E" stroke-width="0.5" stroke-miterlimit="10"/>
<path opacity="0.5" d="M153.83 0.25V263.53" stroke="#0E0E0E" stroke-width="0.5" stroke-miterlimit="10"/>
<path opacity="0.5" d="M142.86 0.25V263.53" stroke="#0E0E0E" stroke-width="0.5" stroke-miterlimit="10"/>
<path opacity="0.5" d="M131.89 0.25V263.53" stroke="#0E0E0E" stroke-width="0.5" stroke-miterlimit="10"/>
<path opacity="0.5" d="M120.92 0.25V263.53" stroke="#0E0E0E" stroke-width="0.5" stroke-miterlimit="10"/>
<path opacity="0.5" d="M109.95 0.25V263.53" stroke="#0E0E0E" stroke-width="0.5" stroke-miterlimit="10"/>
<path opacity="0.5" d="M98.9805 0.25V263.53" stroke="#0E0E0E" stroke-width="0.5" stroke-miterlimit="10"/>
<path opacity="0.5" d="M88.0098 0.25V263.53" stroke="#0E0E0E" stroke-width="0.5" stroke-miterlimit="10"/>
<path opacity="0.5" d="M77.04 0.25V263.53" stroke="#0E0E0E" stroke-width="0.5" stroke-miterlimit="10"/>
<path opacity="0.5" d="M66.0703 0.25V263.53" stroke="#0E0E0E" stroke-width="0.5" stroke-miterlimit="10"/>
<path opacity="0.5" d="M55.0996 0.25V263.53" stroke="#0E0E0E" stroke-width="0.5" stroke-miterlimit="10"/>
<path opacity="0.5" d="M44.1299 0.25V263.53" stroke="#0E0E0E" stroke-width="0.5" stroke-miterlimit="10"/>
<path opacity="0.5" d="M33.1602 0.25V263.53" stroke="#0E0E0E" stroke-width="0.5" stroke-miterlimit="10"/>
<path opacity="0.5" d="M22.1904 0.25V263.53" stroke="#0E0E0E" stroke-width="0.5" stroke-miterlimit="10"/>
<path opacity="0.5" d="M11.2197 0.25V263.53" stroke="#0E0E0E" stroke-width="0.5" stroke-miterlimit="10"/>
<path opacity="0.5" d="M0.25 0.25V263.53" stroke="#0E0E0E" stroke-width="0.5" stroke-miterlimit="10"/>
</svg>
