<svg width="100" height="84" viewBox="0 0 100 84" fill="none" xmlns="http://www.w3.org/2000/svg">
<path d="M16.6641 20.834V29.1676L58.332 29.1676V20.834H16.6641Z" fill="#0E0E0E"/>
<path d="M16.6641 37.5013V45.8348L74.9992 45.8348V37.5013H16.6641Z" fill="#0E0E0E"/>
<path d="M8.33436 16.6672H16.668V8.33365L8.33436 8.33365L8.33436 16.6672Z" fill="#0E0E0E"/>
<path d="M0.000419617 50.0016H8.33398L8.33398 16.6672H0.000419617L0.000419617 50.0016Z" fill="#0E0E0E"/>
<path d="M91.6664 50.0016H100V16.6672H91.6664V50.0016Z" fill="#0E0E0E"/>
<path d="M83.3324 16.6672H91.666V8.33365L83.3324 8.33365V16.6672Z" fill="#0E0E0E"/>
<path d="M8.33436 58.3313H16.668V49.9977H8.33436L8.33436 58.3313Z" fill="#0E0E0E"/>
<path d="M83.3324 58.3313H91.666V49.9977H83.3324V58.3313Z" fill="#0E0E0E"/>
<path d="M16.6634 8.33362L83.332 8.33362V3.05176e-05L16.6634 3.05176e-05V8.33362Z" fill="#0E0E0E"/>
<path d="M16.6664 66.6649H25V58.3313H16.6664V66.6649Z" fill="#0E0E0E"/>
<path d="M33.3344 74.9984H41.668V66.6648H33.3344V74.9984Z" fill="#0E0E0E"/>
<path d="M25.0004 83.3322H33.334V74.9986H25.0004V83.3322Z" fill="#0E0E0E"/>
<path d="M33.3305 66.6649H83.332V58.3313L33.3305 58.3313V66.6649Z" fill="#0E0E0E"/>
</svg>
