<svg width="264" height="264" viewBox="0 0 264 264" fill="none" xmlns="http://www.w3.org/2000/svg">
<path d="M88.0007 22.1899L175.761 22.1899V0.249941L88.0007 0.249941V22.1899Z" fill="#B2BBB9"/>
<path d="M66.0707 44.1299H88.0107V22.1899L66.0707 22.1899V44.1299Z" fill="#B2BBB9"/>
<path d="M44.1205 109.95H66.0605L66.0605 44.13H44.1205L44.1205 109.95Z" fill="#B2BBB9"/>
<path d="M197.71 109.95H219.65V44.13H197.71V109.95Z" fill="#B2BBB9"/>
<path d="M175.77 44.1299H197.71V22.1899L175.77 22.1899V44.1299Z" fill="#B2BBB9"/>
<path d="M66.0707 131.89H88.0107V109.95H66.0707V131.89Z" fill="#B2BBB9"/>
<path d="M88.0004 175.76H109.94V131.88H88.0004V175.76Z" fill="#B2BBB9"/>
<path d="M22.1801 263.52H44.1201L44.1201 197.7H22.1801L22.1801 263.52Z" fill="#B2BBB9"/>
<path d="M219.65 263.52H241.59V197.7H219.65V263.52Z" fill="#B2BBB9"/>
<path d="M153.831 175.76H175.771V131.88H153.831V175.76Z" fill="#B2BBB9"/>
<path d="M175.77 131.89H197.71V109.95H175.77V131.89Z" fill="#B2BBB9"/>
<path d="M44.1307 197.7H88.0107V175.76H44.1307V197.7Z" fill="#B2BBB9"/>
<path d="M175.77 197.7H219.65V175.76H175.77V197.7Z" fill="#B2BBB9"/>
<path opacity="0.5" d="M0.25 0.25H263.52" stroke="#0E0E0E" stroke-width="0.5" stroke-miterlimit="10"/>
<path opacity="0.5" d="M0.25 11.22H263.52" stroke="#0E0E0E" stroke-width="0.5" stroke-miterlimit="10"/>
<path opacity="0.5" d="M0.25 22.19H263.52" stroke="#0E0E0E" stroke-width="0.5" stroke-miterlimit="10"/>
<path opacity="0.5" d="M0.25 33.16H263.52" stroke="#0E0E0E" stroke-width="0.5" stroke-miterlimit="10"/>
<path opacity="0.5" d="M0.25 44.13H263.52" stroke="#0E0E0E" stroke-width="0.5" stroke-miterlimit="10"/>
<path opacity="0.5" d="M0.25 55.1H263.52" stroke="#0E0E0E" stroke-width="0.5" stroke-miterlimit="10"/>
<path opacity="0.5" d="M0.25 66.07H263.52" stroke="#0E0E0E" stroke-width="0.5" stroke-miterlimit="10"/>
<path opacity="0.5" d="M0.25 77.04H263.52" stroke="#0E0E0E" stroke-width="0.5" stroke-miterlimit="10"/>
<path opacity="0.5" d="M0.25 88.01H263.52" stroke="#0E0E0E" stroke-width="0.5" stroke-miterlimit="10"/>
<path opacity="0.5" d="M0.25 98.98H263.52" stroke="#0E0E0E" stroke-width="0.5" stroke-miterlimit="10"/>
<path opacity="0.5" d="M0.25 109.95H263.52" stroke="#0E0E0E" stroke-width="0.5" stroke-miterlimit="10"/>
<path opacity="0.5" d="M0.25 120.92H263.52" stroke="#0E0E0E" stroke-width="0.5" stroke-miterlimit="10"/>
<path opacity="0.5" d="M0.25 131.89H263.52" stroke="#0E0E0E" stroke-width="0.5" stroke-miterlimit="10"/>
<path opacity="0.5" d="M0.25 142.86H263.52" stroke="#0E0E0E" stroke-width="0.5" stroke-miterlimit="10"/>
<path opacity="0.5" d="M0.25 153.83H263.52" stroke="#0E0E0E" stroke-width="0.5" stroke-miterlimit="10"/>
<path opacity="0.5" d="M0.25 164.8H263.52" stroke="#0E0E0E" stroke-width="0.5" stroke-miterlimit="10"/>
<path opacity="0.5" d="M0.25 175.77H263.52" stroke="#0E0E0E" stroke-width="0.5" stroke-miterlimit="10"/>
<path opacity="0.5" d="M0.25 186.74H263.52" stroke="#0E0E0E" stroke-width="0.5" stroke-miterlimit="10"/>
<path opacity="0.5" d="M0.25 197.71H263.52" stroke="#0E0E0E" stroke-width="0.5" stroke-miterlimit="10"/>
<path opacity="0.5" d="M0.25 208.68H263.52" stroke="#0E0E0E" stroke-width="0.5" stroke-miterlimit="10"/>
<path opacity="0.5" d="M0.25 219.65H263.52" stroke="#0E0E0E" stroke-width="0.5" stroke-miterlimit="10"/>
<path opacity="0.5" d="M0.25 230.62H263.52" stroke="#0E0E0E" stroke-width="0.5" stroke-miterlimit="10"/>
<path opacity="0.5" d="M0.25 241.59H263.52" stroke="#0E0E0E" stroke-width="0.5" stroke-miterlimit="10"/>
<path opacity="0.5" d="M0.25 252.56H263.52" stroke="#0E0E0E" stroke-width="0.5" stroke-miterlimit="10"/>
<path opacity="0.5" d="M0.25 263.53H263.52" stroke="#0E0E0E" stroke-width="0.5" stroke-miterlimit="10"/>
<path opacity="0.5" d="M263.52 0.25V263.53" stroke="#0E0E0E" stroke-width="0.5" stroke-miterlimit="10"/>
<path opacity="0.5" d="M252.551 0.25V263.53" stroke="#0E0E0E" stroke-width="0.5" stroke-miterlimit="10"/>
<path opacity="0.5" d="M241.58 0.25V263.53" stroke="#0E0E0E" stroke-width="0.5" stroke-miterlimit="10"/>
<path opacity="0.5" d="M230.609 0.25V263.53" stroke="#0E0E0E" stroke-width="0.5" stroke-miterlimit="10"/>
<path opacity="0.5" d="M219.64 0.25V263.53" stroke="#0E0E0E" stroke-width="0.5" stroke-miterlimit="10"/>
<path opacity="0.5" d="M208.67 0.25V263.53" stroke="#0E0E0E" stroke-width="0.5" stroke-miterlimit="10"/>
<path opacity="0.5" d="M197.7 0.25V263.53" stroke="#0E0E0E" stroke-width="0.5" stroke-miterlimit="10"/>
<path opacity="0.5" d="M186.73 0.25V263.53" stroke="#0E0E0E" stroke-width="0.5" stroke-miterlimit="10"/>
<path opacity="0.5" d="M175.76 0.25V263.53" stroke="#0E0E0E" stroke-width="0.5" stroke-miterlimit="10"/>
<path opacity="0.5" d="M164.79 0.25V263.53" stroke="#0E0E0E" stroke-width="0.5" stroke-miterlimit="10"/>
<path opacity="0.5" d="M153.82 0.25V263.53" stroke="#0E0E0E" stroke-width="0.5" stroke-miterlimit="10"/>
<path opacity="0.5" d="M142.85 0.25V263.53" stroke="#0E0E0E" stroke-width="0.5" stroke-miterlimit="10"/>
<path opacity="0.5" d="M131.88 0.25V263.53" stroke="#0E0E0E" stroke-width="0.5" stroke-miterlimit="10"/>
<path opacity="0.5" d="M120.92 0.25V263.53" stroke="#0E0E0E" stroke-width="0.5" stroke-miterlimit="10"/>
<path opacity="0.5" d="M109.95 0.25V263.53" stroke="#0E0E0E" stroke-width="0.5" stroke-miterlimit="10"/>
<path opacity="0.5" d="M98.9805 0.25V263.53" stroke="#0E0E0E" stroke-width="0.5" stroke-miterlimit="10"/>
<path opacity="0.5" d="M88.0098 0.25V263.53" stroke="#0E0E0E" stroke-width="0.5" stroke-miterlimit="10"/>
<path opacity="0.5" d="M77.04 0.25V263.53" stroke="#0E0E0E" stroke-width="0.5" stroke-miterlimit="10"/>
<path opacity="0.5" d="M66.0703 0.25V263.53" stroke="#0E0E0E" stroke-width="0.5" stroke-miterlimit="10"/>
<path opacity="0.5" d="M55.0996 0.25V263.53" stroke="#0E0E0E" stroke-width="0.5" stroke-miterlimit="10"/>
<path opacity="0.5" d="M44.1299 0.25V263.53" stroke="#0E0E0E" stroke-width="0.5" stroke-miterlimit="10"/>
<path opacity="0.5" d="M33.1602 0.25V263.53" stroke="#0E0E0E" stroke-width="0.5" stroke-miterlimit="10"/>
<path opacity="0.5" d="M22.1904 0.25V263.53" stroke="#0E0E0E" stroke-width="0.5" stroke-miterlimit="10"/>
<path opacity="0.5" d="M11.2197 0.25V263.53" stroke="#0E0E0E" stroke-width="0.5" stroke-miterlimit="10"/>
<path opacity="0.5" d="M0.25 0.25V263.53" stroke="#0E0E0E" stroke-width="0.5" stroke-miterlimit="10"/>
</svg>
