<svg width="100" height="100" viewBox="0 0 100 100" fill="none" xmlns="http://www.w3.org/2000/svg">
<path d="M66.67 66.6655H16.668V74.9992H66.67V66.6655Z" fill="#0E0E0E"/>
<path d="M8.33366 66.6655H0V74.9992H8.33366V66.6655Z" fill="#0E0E0E"/>
<path d="M16.6676 58.3319H8.33398V66.6656H16.6676V58.3319Z" fill="#0E0E0E"/>
<path d="M16.6676 74.9992H8.33398V83.3329H16.6676V74.9992Z" fill="#0E0E0E"/>
<path d="M25.0016 50.002H16.668V58.3356H25.0016V50.002Z" fill="#0E0E0E"/>
<path d="M33.3337 41.6683H25V50.002H33.3337V41.6683Z" fill="#0E0E0E"/>
<path d="M33.3337 91.6704H25V100.004H33.3337V91.6704Z" fill="#0E0E0E"/>
<path d="M25.0016 83.3328H16.668V91.6665H25.0016V83.3328Z" fill="#0E0E0E"/>
<path d="M33.33 33.3347L83.332 33.3347V25.0011L33.33 25.0011V33.3347Z" fill="#0E0E0E"/>
<path d="M91.6663 33.3347H100V25.001H91.6663V33.3347Z" fill="#0E0E0E"/>
<path d="M83.3323 41.6683H91.666V33.3347H83.3323V41.6683Z" fill="#0E0E0E"/>
<path d="M83.3323 25.001H91.666V16.6674H83.3323V25.001Z" fill="#0E0E0E"/>
<path d="M74.9984 50.002H83.332V41.6683H74.9984V50.002Z" fill="#0E0E0E"/>
<path d="M66.6702 58.3319H75.0039V49.9982H66.6702V58.3319Z" fill="#0E0E0E"/>
<path d="M74.9984 16.6673H83.332V8.33363L74.9984 8.33363V16.6673Z" fill="#0E0E0E"/>
<path d="M66.6663 8.33368L75 8.33368V1.43051e-05L66.6663 1.43051e-05V8.33368Z" fill="#0E0E0E"/>
</svg>
