<svg width="30" height="36" viewBox="0 0 30 36" fill="none" xmlns="http://www.w3.org/2000/svg">
<path d="M9.0015 3.00012L21.002 3.00012V9.05991e-06L9.0015 9.05991e-06V3.00012Z" fill="#0E0E0E"/>
<path d="M6.00184 6.00021H9.00195V3.0001L6.00184 3.0001V6.00021Z" fill="#0E0E0E"/>
<path d="M2.99989 15.0006H6L6 6.00024H2.99989L2.99989 15.0006Z" fill="#0E0E0E"/>
<path d="M24.0038 15.0005H27.0039V6.00021H24.0038V15.0005Z" fill="#0E0E0E"/>
<path d="M21.0038 6.00021H24.0039V3.0001L21.0038 3.0001V6.00021Z" fill="#0E0E0E"/>
<path d="M6.00184 18.0007H9.00195V15.0006H6.00184V18.0007Z" fill="#0E0E0E"/>
<path d="M8.99989 23.9995H12V17.9993H8.99989V23.9995Z" fill="#0E0E0E"/>
<path d="M-0.000113249 36H3L3 26.9997H-0.000113249L-0.000113249 36Z" fill="#0E0E0E"/>
<path d="M27.0038 36H30.0039V26.9997H27.0038V36Z" fill="#0E0E0E"/>
<path d="M18.0018 23.9995H21.002V17.9993H18.0018V23.9995Z" fill="#0E0E0E"/>
<path d="M21.0038 18.0007H24.0039V15.0006H21.0038V18.0007Z" fill="#0E0E0E"/>
<path d="M3.00173 26.9996H9.00195V23.9995H3.00173V26.9996Z" fill="#0E0E0E"/>
<path d="M21.0037 26.9996H27.0039V23.9995H21.0037V26.9996Z" fill="#0E0E0E"/>
</svg>
