<svg width="36" height="36" viewBox="0 0 36 36" fill="none" xmlns="http://www.w3.org/2000/svg">
<path d="M11.9994 3L23.998 3V-1.66893e-06L11.9994 -1.66893e-06V3Z" fill="#0E0E0E"/>
<path d="M33 11.9986V23.9987H36V11.9986H33Z" fill="#0E0E0E"/>
<path d="M0 11.9987L0 23.9987H3L3 11.9987H0Z" fill="#0E0E0E"/>
<path d="M9 6H12V3L9 3V6Z" fill="#0E0E0E"/>
<path d="M23.9986 32.9987H12V35.9987H23.9986V32.9987Z" fill="#0E0E0E"/>
<path d="M12 29.9986H9V32.9986H12V29.9986Z" fill="#0E0E0E"/>
<path d="M15 26.9986H12V32.9987H15V26.9986Z" fill="#0E0E0E"/>
<path d="M9 27H6V30H9V27Z" fill="#0E0E0E"/>
<path d="M9 6H6V9H9V6Z" fill="#0E0E0E"/>
<path d="M6 9.00002H3V12H6V9.00002Z" fill="#0E0E0E"/>
<path d="M18 17.9986H21V14.9986H18V17.9986Z" fill="#0E0E0E"/>
<path d="M17.998 17.9986H14.998V20.9986H17.998V17.9986Z" fill="#0E0E0E"/>
<path d="M6 17.9986H3V20.9986H6V17.9986Z" fill="#0E0E0E"/>
<path d="M24 27H21V30H24V27Z" fill="#0E0E0E"/>
<path d="M27 29.9986H24V32.9986H27V29.9986Z" fill="#0E0E0E"/>
<path d="M24 6H27V3L24 3V6Z" fill="#0E0E0E"/>
<path d="M27 20.9987H30V14.9987H27V20.9987Z" fill="#0E0E0E"/>
<path d="M27 9.00002H30V6.00001H27V9.00002Z" fill="#0E0E0E"/>
<path d="M30 11.9986H33V8.99864H30V11.9986Z" fill="#0E0E0E"/>
<path d="M21 14.9986L33 14.9986V11.9986L21 11.9986V14.9986Z" fill="#0E0E0E"/>
<path d="M9 14.9986H15V11.9986H9V14.9986Z" fill="#0E0E0E"/>
<path d="M18 9.00002H24V6.00002L18 6.00002V9.00002Z" fill="#0E0E0E"/>
<path d="M12 26.9987H18V23.9987H12V26.9987Z" fill="#0E0E0E"/>
<path d="M27 29.9986H30V26.9986H27V29.9986Z" fill="#0E0E0E"/>
<path d="M30 26.9986H33V23.9986H30V26.9986Z" fill="#0E0E0E"/>
<path d="M3 26.9986H6V23.9986H3L3 26.9986Z" fill="#0E0E0E"/>
</svg>
