<svg width="84" height="100" viewBox="0 0 84 100" fill="none" xmlns="http://www.w3.org/2000/svg">
<path d="M24.9994 8.33365L58.334 8.33365V9.53674e-07L24.9994 9.53674e-07V8.33365Z" fill="#0E0E0E"/>
<path d="M16.6703 16.6673H25.0039V8.33362L16.6703 8.33362V16.6673Z" fill="#0E0E0E"/>
<path d="M8.33237 41.6682H16.666L16.666 16.6673H8.33237L8.33237 41.6682Z" fill="#0E0E0E"/>
<path d="M66.6722 41.6682H75.0059V16.6673H66.6722V41.6682Z" fill="#0E0E0E"/>
<path d="M58.3382 16.6673H66.6719V8.33362L58.3382 8.33362V16.6673Z" fill="#0E0E0E"/>
<path d="M16.6703 50.0019H25.0039V41.6682H16.6703V50.0019Z" fill="#0E0E0E"/>
<path d="M25.0003 66.6654H33.334V49.9981H25.0003V66.6654Z" fill="#0E0E0E"/>
<path d="M0.000336647 100H8.33398L8.33398 74.9991H0.000336647L0.000336647 100Z" fill="#0E0E0E"/>
<path d="M75.0062 100H83.3398V74.9991H75.0062V100Z" fill="#0E0E0E"/>
<path d="M50.0062 66.6654H58.3398V49.9981H50.0062V66.6654Z" fill="#0E0E0E"/>
<path d="M58.3382 50.0019H66.6719V41.6682H58.3382V50.0019Z" fill="#0E0E0E"/>
<path d="M8.33661 74.999H25.0039V66.6654H8.33661V74.999Z" fill="#0E0E0E"/>
<path d="M58.3386 74.999H75.0059V66.6654H58.3386V74.999Z" fill="#0E0E0E"/>
</svg>
