<svg width="27" height="36" viewBox="0 0 27 36" fill="none" xmlns="http://www.w3.org/2000/svg">
<path d="M-7.39098e-06 36H3L3 1.52588e-05H-7.39098e-06L-7.39098e-06 36Z" fill="#0E0E0E"/>
<path d="M0 33L0 36H21V33H0Z" fill="#0E0E0E"/>
<path d="M0 3.00001L0 6L25.5 6V3.00001L0 3.00001Z" fill="#0E0E0E"/>
<path d="M6.00195 12V15H15.0019V12H6.00195Z" fill="#0E0E0E"/>
<path d="M6.00195 18V21H21.0019V18H6.00195Z" fill="#0E0E0E"/>
<path d="M24 30H27L27 1.33514e-05H24L24 30Z" fill="#0E0E0E"/>
<path d="M21 32.9986H24V29.9986H21V32.9986Z" fill="#0E0E0E"/>
<path d="M18.002 26.9987H24.002V23.9987H18.002V26.9987Z" fill="#0E0E0E"/>
<path d="M15.002 24V33H18.002V24H15.002Z" fill="#0E0E0E"/>
<path d="M12.0019 9H15.002L15.002 3.8147e-06H12.0019V9Z" fill="#0E0E0E"/>
<path d="M18 9H21V3.8147e-06H18V9Z" fill="#0E0E0E"/>
<path d="M5.99999 9H9L9 3.8147e-06H5.99999L5.99999 9Z" fill="#0E0E0E"/>
</svg>
