<svg width="36" height="36" viewBox="0 0 36 36" fill="none" xmlns="http://www.w3.org/2000/svg">
<path d="M24.0007 23.9996H6V26.9997H24.0007V23.9996Z" fill="#0E0E0E"/>
<path d="M3.00012 23.9996H0V26.9997H3.00012V23.9996Z" fill="#0E0E0E"/>
<path d="M6.00012 20.9995H3V23.9996H6.00012V20.9995Z" fill="#0E0E0E"/>
<path d="M6.00012 26.9997H3V29.9998H6.00012V26.9997Z" fill="#0E0E0E"/>
<path d="M9.00012 18.0007H6V21.0008H9.00012V18.0007Z" fill="#0E0E0E"/>
<path d="M12.0001 15.0006H9V18.0007H12.0001V15.0006Z" fill="#0E0E0E"/>
<path d="M12.0001 33.0013H9V36.0015H12.0001V33.0013Z" fill="#0E0E0E"/>
<path d="M9.00012 29.9998H6V32.9999H9.00012V29.9998Z" fill="#0E0E0E"/>
<path d="M11.9993 12.0005L30 12.0005V9.00037L11.9993 9.00037V12.0005Z" fill="#0E0E0E"/>
<path d="M32.9999 12.0005H36V9.00037H32.9999V12.0005Z" fill="#0E0E0E"/>
<path d="M29.9999 15.0006H33V12.0005H29.9999V15.0006Z" fill="#0E0E0E"/>
<path d="M29.9999 9.00037H33V6.00025H29.9999V9.00037Z" fill="#0E0E0E"/>
<path d="M26.9999 18.0007H30V15.0006H26.9999V18.0007Z" fill="#0E0E0E"/>
<path d="M24.0018 20.9995H27.002V17.9994H24.0018V20.9995Z" fill="#0E0E0E"/>
<path d="M26.9999 6.00024H30V3.00012L26.9999 3.00012V6.00024Z" fill="#0E0E0E"/>
<path d="M23.9999 3.00012L27 3.00012V2.6226e-06L23.9999 2.6226e-06V3.00012Z" fill="#0E0E0E"/>
</svg>
