<svg width="264" height="264" viewBox="0 0 264 264" fill="none" xmlns="http://www.w3.org/2000/svg">
<path opacity="0.5" d="M263.531 0.25V263.53" stroke="#0E0E0E" stroke-width="0.5" stroke-miterlimit="10"/>
<path d="M175.77 175.76H44.1299V197.7H175.77V175.76Z" fill="#B2BBB9"/>
<path d="M22.19 175.76H0.25V197.7H22.19V175.76Z" fill="#B2BBB9"/>
<path d="M44.1304 153.82H22.1904V175.76H44.1304V153.82Z" fill="#B2BBB9"/>
<path d="M44.1304 197.7H22.1904V219.64H44.1304V197.7Z" fill="#B2BBB9"/>
<path d="M66.0699 131.89H44.1299V153.83H66.0699V131.89Z" fill="#B2BBB9"/>
<path d="M88.0103 109.95H66.0703V131.89H88.0103V109.95Z" fill="#B2BBB9"/>
<path d="M88.0103 241.59H66.0703V263.53H88.0103V241.59Z" fill="#B2BBB9"/>
<path d="M66.0699 219.64H44.1299V241.58H66.0699V219.64Z" fill="#B2BBB9"/>
<path d="M87.9997 88.0101L219.64 88.0101V66.0701L87.9997 66.0701V88.0101Z" fill="#B2BBB9"/>
<path d="M241.58 88.0101H263.52V66.0701H241.58V88.0101Z" fill="#B2BBB9"/>
<path d="M219.64 109.95H241.58V88.01H219.64V109.95Z" fill="#B2BBB9"/>
<path d="M219.64 66.0701H241.58V44.1301H219.64V66.0701Z" fill="#B2BBB9"/>
<path d="M197.7 131.89H219.64V109.95H197.7V131.89Z" fill="#B2BBB9"/>
<path d="M175.77 153.82H197.71V131.88H175.77V153.82Z" fill="#B2BBB9"/>
<path d="M197.7 44.1299H219.64V22.1899L197.7 22.1899V44.1299Z" fill="#B2BBB9"/>
<path d="M175.76 22.19L197.7 22.19V0.250002L175.76 0.250002V22.19Z" fill="#B2BBB9"/>
<path opacity="0.5" d="M0.25 0.25H263.53" stroke="#0E0E0E" stroke-width="0.5" stroke-miterlimit="10"/>
<path opacity="0.5" d="M0.25 11.22H263.53" stroke="#0E0E0E" stroke-width="0.5" stroke-miterlimit="10"/>
<path opacity="0.5" d="M0.25 22.19H263.53" stroke="#0E0E0E" stroke-width="0.5" stroke-miterlimit="10"/>
<path opacity="0.5" d="M0.25 33.16H263.53" stroke="#0E0E0E" stroke-width="0.5" stroke-miterlimit="10"/>
<path opacity="0.5" d="M0.25 44.13H263.53" stroke="#0E0E0E" stroke-width="0.5" stroke-miterlimit="10"/>
<path opacity="0.5" d="M0.25 55.1H263.53" stroke="#0E0E0E" stroke-width="0.5" stroke-miterlimit="10"/>
<path opacity="0.5" d="M0.25 66.07H263.53" stroke="#0E0E0E" stroke-width="0.5" stroke-miterlimit="10"/>
<path opacity="0.5" d="M0.25 77.04H263.53" stroke="#0E0E0E" stroke-width="0.5" stroke-miterlimit="10"/>
<path opacity="0.5" d="M0.25 88.01H263.53" stroke="#0E0E0E" stroke-width="0.5" stroke-miterlimit="10"/>
<path opacity="0.5" d="M0.25 98.98H263.53" stroke="#0E0E0E" stroke-width="0.5" stroke-miterlimit="10"/>
<path opacity="0.5" d="M0.25 109.95H263.53" stroke="#0E0E0E" stroke-width="0.5" stroke-miterlimit="10"/>
<path opacity="0.5" d="M0.25 120.92H263.53" stroke="#0E0E0E" stroke-width="0.5" stroke-miterlimit="10"/>
<path opacity="0.5" d="M0.25 131.89H263.53" stroke="#0E0E0E" stroke-width="0.5" stroke-miterlimit="10"/>
<path opacity="0.5" d="M0.25 142.86H263.53" stroke="#0E0E0E" stroke-width="0.5" stroke-miterlimit="10"/>
<path opacity="0.5" d="M0.25 153.83H263.53" stroke="#0E0E0E" stroke-width="0.5" stroke-miterlimit="10"/>
<path opacity="0.5" d="M0.25 164.8H263.53" stroke="#0E0E0E" stroke-width="0.5" stroke-miterlimit="10"/>
<path opacity="0.5" d="M0.25 175.77H263.53" stroke="#0E0E0E" stroke-width="0.5" stroke-miterlimit="10"/>
<path opacity="0.5" d="M0.25 186.74H263.53" stroke="#0E0E0E" stroke-width="0.5" stroke-miterlimit="10"/>
<path opacity="0.5" d="M0.25 197.71H263.53" stroke="#0E0E0E" stroke-width="0.5" stroke-miterlimit="10"/>
<path opacity="0.5" d="M0.25 208.68H263.53" stroke="#0E0E0E" stroke-width="0.5" stroke-miterlimit="10"/>
<path opacity="0.5" d="M0.25 219.65H263.53" stroke="#0E0E0E" stroke-width="0.5" stroke-miterlimit="10"/>
<path opacity="0.5" d="M0.25 230.62H263.53" stroke="#0E0E0E" stroke-width="0.5" stroke-miterlimit="10"/>
<path opacity="0.5" d="M0.25 241.59H263.53" stroke="#0E0E0E" stroke-width="0.5" stroke-miterlimit="10"/>
<path opacity="0.5" d="M0.25 252.56H263.53" stroke="#0E0E0E" stroke-width="0.5" stroke-miterlimit="10"/>
<path opacity="0.5" d="M0.25 263.53H263.53" stroke="#0E0E0E" stroke-width="0.5" stroke-miterlimit="10"/>
<path opacity="0.5" d="M252.559 0.25V263.53" stroke="#0E0E0E" stroke-width="0.5" stroke-miterlimit="10"/>
<path opacity="0.5" d="M241.59 0.25V263.53" stroke="#0E0E0E" stroke-width="0.5" stroke-miterlimit="10"/>
<path opacity="0.5" d="M230.621 0.25V263.53" stroke="#0E0E0E" stroke-width="0.5" stroke-miterlimit="10"/>
<path opacity="0.5" d="M219.65 0.25V263.53" stroke="#0E0E0E" stroke-width="0.5" stroke-miterlimit="10"/>
<path opacity="0.5" d="M208.68 0.25V263.53" stroke="#0E0E0E" stroke-width="0.5" stroke-miterlimit="10"/>
<path opacity="0.5" d="M197.71 0.25V263.53" stroke="#0E0E0E" stroke-width="0.5" stroke-miterlimit="10"/>
<path opacity="0.5" d="M186.74 0.25V263.53" stroke="#0E0E0E" stroke-width="0.5" stroke-miterlimit="10"/>
<path opacity="0.5" d="M175.77 0.25V263.53" stroke="#0E0E0E" stroke-width="0.5" stroke-miterlimit="10"/>
<path opacity="0.5" d="M164.8 0.25V263.53" stroke="#0E0E0E" stroke-width="0.5" stroke-miterlimit="10"/>
<path opacity="0.5" d="M153.83 0.25V263.53" stroke="#0E0E0E" stroke-width="0.5" stroke-miterlimit="10"/>
<path opacity="0.5" d="M142.86 0.25V263.53" stroke="#0E0E0E" stroke-width="0.5" stroke-miterlimit="10"/>
<path opacity="0.5" d="M131.89 0.25V263.53" stroke="#0E0E0E" stroke-width="0.5" stroke-miterlimit="10"/>
<path opacity="0.5" d="M120.92 0.25V263.53" stroke="#0E0E0E" stroke-width="0.5" stroke-miterlimit="10"/>
<path opacity="0.5" d="M109.95 0.25V263.53" stroke="#0E0E0E" stroke-width="0.5" stroke-miterlimit="10"/>
<path opacity="0.5" d="M98.9805 0.25V263.53" stroke="#0E0E0E" stroke-width="0.5" stroke-miterlimit="10"/>
<path opacity="0.5" d="M88.0098 0.25V263.53" stroke="#0E0E0E" stroke-width="0.5" stroke-miterlimit="10"/>
<path opacity="0.5" d="M77.04 0.25V263.53" stroke="#0E0E0E" stroke-width="0.5" stroke-miterlimit="10"/>
<path opacity="0.5" d="M66.0703 0.25V263.53" stroke="#0E0E0E" stroke-width="0.5" stroke-miterlimit="10"/>
<path opacity="0.5" d="M55.0996 0.25V263.53" stroke="#0E0E0E" stroke-width="0.5" stroke-miterlimit="10"/>
<path opacity="0.5" d="M44.1299 0.25V263.53" stroke="#0E0E0E" stroke-width="0.5" stroke-miterlimit="10"/>
<path opacity="0.5" d="M33.1602 0.25V263.53" stroke="#0E0E0E" stroke-width="0.5" stroke-miterlimit="10"/>
<path opacity="0.5" d="M22.1904 0.25V263.53" stroke="#0E0E0E" stroke-width="0.5" stroke-miterlimit="10"/>
<path opacity="0.5" d="M11.2197 0.25V263.53" stroke="#0E0E0E" stroke-width="0.5" stroke-miterlimit="10"/>
<path opacity="0.5" d="M0.25 0.25V263.53" stroke="#0E0E0E" stroke-width="0.5" stroke-miterlimit="10"/>
</svg>
