<svg width="264" height="264" viewBox="0 0 264 264" fill="none" xmlns="http://www.w3.org/2000/svg">
<path d="M44.1309 77.0399V98.98H153.831V77.0399H44.1309Z" fill="#B2BBB9"/>
<path d="M44.1309 120.92V142.86H197.711V120.92L44.1309 120.92Z" fill="#B2BBB9"/>
<path d="M22.2006 66.0701H44.1406V44.1301H22.2006L22.2006 66.0701Z" fill="#B2BBB9"/>
<path d="M0.259277 153.83H22.1992L22.1992 66.0701H0.259277L0.259277 153.83Z" fill="#B2BBB9"/>
<path d="M241.591 153.83H263.531V66.0701H241.591V153.83Z" fill="#B2BBB9"/>
<path d="M219.65 66.0701H241.59V44.1301H219.65V66.0701Z" fill="#B2BBB9"/>
<path d="M22.2006 175.76H44.1406V153.82H22.2006L22.2006 175.76Z" fill="#B2BBB9"/>
<path d="M219.65 175.76H241.59V153.82H219.65V175.76Z" fill="#B2BBB9"/>
<path d="M44.1305 44.1299L219.65 44.1299V22.1899L44.1305 22.1899V44.1299Z" fill="#B2BBB9"/>
<path d="M44.1401 197.7H66.0801V175.76H44.1401V197.7Z" fill="#B2BBB9"/>
<path d="M88.0209 219.64H109.961V197.7H88.0209V219.64Z" fill="#B2BBB9"/>
<path d="M66.0796 241.58H88.0195V219.64H66.0796V241.58Z" fill="#B2BBB9"/>
<path d="M88.0104 197.7L219.65 197.7V175.76L88.0104 175.76V197.7Z" fill="#B2BBB9"/>
<path opacity="0.5" d="M0.25 0.25H263.53" stroke="#0E0E0E" stroke-width="0.5" stroke-miterlimit="10"/>
<path opacity="0.5" d="M0.25 11.22H263.53" stroke="#0E0E0E" stroke-width="0.5" stroke-miterlimit="10"/>
<path opacity="0.5" d="M0.25 22.19H263.53" stroke="#0E0E0E" stroke-width="0.5" stroke-miterlimit="10"/>
<path opacity="0.5" d="M0.25 33.16H263.53" stroke="#0E0E0E" stroke-width="0.5" stroke-miterlimit="10"/>
<path opacity="0.5" d="M0.25 44.13H263.53" stroke="#0E0E0E" stroke-width="0.5" stroke-miterlimit="10"/>
<path opacity="0.5" d="M0.25 55.1H263.53" stroke="#0E0E0E" stroke-width="0.5" stroke-miterlimit="10"/>
<path opacity="0.5" d="M0.25 66.07H263.53" stroke="#0E0E0E" stroke-width="0.5" stroke-miterlimit="10"/>
<path opacity="0.5" d="M0.25 77.04H263.53" stroke="#0E0E0E" stroke-width="0.5" stroke-miterlimit="10"/>
<path opacity="0.5" d="M0.25 88.01H263.53" stroke="#0E0E0E" stroke-width="0.5" stroke-miterlimit="10"/>
<path opacity="0.5" d="M0.25 98.98H263.53" stroke="#0E0E0E" stroke-width="0.5" stroke-miterlimit="10"/>
<path opacity="0.5" d="M0.25 109.95H263.53" stroke="#0E0E0E" stroke-width="0.5" stroke-miterlimit="10"/>
<path opacity="0.5" d="M0.25 120.92H263.53" stroke="#0E0E0E" stroke-width="0.5" stroke-miterlimit="10"/>
<path opacity="0.5" d="M0.25 131.89H263.53" stroke="#0E0E0E" stroke-width="0.5" stroke-miterlimit="10"/>
<path opacity="0.5" d="M0.25 142.86H263.53" stroke="#0E0E0E" stroke-width="0.5" stroke-miterlimit="10"/>
<path opacity="0.5" d="M0.25 153.83H263.53" stroke="#0E0E0E" stroke-width="0.5" stroke-miterlimit="10"/>
<path opacity="0.5" d="M0.25 164.8H263.53" stroke="#0E0E0E" stroke-width="0.5" stroke-miterlimit="10"/>
<path opacity="0.5" d="M0.25 175.77H263.53" stroke="#0E0E0E" stroke-width="0.5" stroke-miterlimit="10"/>
<path opacity="0.5" d="M0.25 186.74H263.53" stroke="#0E0E0E" stroke-width="0.5" stroke-miterlimit="10"/>
<path opacity="0.5" d="M0.25 197.71H263.53" stroke="#0E0E0E" stroke-width="0.5" stroke-miterlimit="10"/>
<path opacity="0.5" d="M0.25 208.68H263.53" stroke="#0E0E0E" stroke-width="0.5" stroke-miterlimit="10"/>
<path opacity="0.5" d="M0.25 219.65H263.53" stroke="#0E0E0E" stroke-width="0.5" stroke-miterlimit="10"/>
<path opacity="0.5" d="M0.25 230.62H263.53" stroke="#0E0E0E" stroke-width="0.5" stroke-miterlimit="10"/>
<path opacity="0.5" d="M0.25 241.59H263.53" stroke="#0E0E0E" stroke-width="0.5" stroke-miterlimit="10"/>
<path opacity="0.5" d="M0.25 252.56H263.53" stroke="#0E0E0E" stroke-width="0.5" stroke-miterlimit="10"/>
<path opacity="0.5" d="M0.25 263.53H263.53" stroke="#0E0E0E" stroke-width="0.5" stroke-miterlimit="10"/>
<path opacity="0.5" d="M263.531 0.25V263.53" stroke="#0E0E0E" stroke-width="0.5" stroke-miterlimit="10"/>
<path opacity="0.5" d="M252.559 0.25V263.53" stroke="#0E0E0E" stroke-width="0.5" stroke-miterlimit="10"/>
<path opacity="0.5" d="M241.59 0.25V263.53" stroke="#0E0E0E" stroke-width="0.5" stroke-miterlimit="10"/>
<path opacity="0.5" d="M230.619 0.25V263.53" stroke="#0E0E0E" stroke-width="0.5" stroke-miterlimit="10"/>
<path opacity="0.5" d="M219.65 0.25V263.53" stroke="#0E0E0E" stroke-width="0.5" stroke-miterlimit="10"/>
<path opacity="0.5" d="M208.68 0.25V263.53" stroke="#0E0E0E" stroke-width="0.5" stroke-miterlimit="10"/>
<path opacity="0.5" d="M197.71 0.25V263.53" stroke="#0E0E0E" stroke-width="0.5" stroke-miterlimit="10"/>
<path opacity="0.5" d="M186.74 0.25V263.53" stroke="#0E0E0E" stroke-width="0.5" stroke-miterlimit="10"/>
<path opacity="0.5" d="M175.77 0.25V263.53" stroke="#0E0E0E" stroke-width="0.5" stroke-miterlimit="10"/>
<path opacity="0.5" d="M164.8 0.25V263.53" stroke="#0E0E0E" stroke-width="0.5" stroke-miterlimit="10"/>
<path opacity="0.5" d="M153.83 0.25V263.53" stroke="#0E0E0E" stroke-width="0.5" stroke-miterlimit="10"/>
<path opacity="0.5" d="M142.86 0.25V263.53" stroke="#0E0E0E" stroke-width="0.5" stroke-miterlimit="10"/>
<path opacity="0.5" d="M131.89 0.25V263.53" stroke="#0E0E0E" stroke-width="0.5" stroke-miterlimit="10"/>
<path opacity="0.5" d="M120.92 0.25V263.53" stroke="#0E0E0E" stroke-width="0.5" stroke-miterlimit="10"/>
<path opacity="0.5" d="M109.95 0.25V263.53" stroke="#0E0E0E" stroke-width="0.5" stroke-miterlimit="10"/>
<path opacity="0.5" d="M98.9805 0.25V263.53" stroke="#0E0E0E" stroke-width="0.5" stroke-miterlimit="10"/>
<path opacity="0.5" d="M88.0098 0.25V263.53" stroke="#0E0E0E" stroke-width="0.5" stroke-miterlimit="10"/>
<path opacity="0.5" d="M77.04 0.25V263.53" stroke="#0E0E0E" stroke-width="0.5" stroke-miterlimit="10"/>
<path opacity="0.5" d="M66.0703 0.25V263.53" stroke="#0E0E0E" stroke-width="0.5" stroke-miterlimit="10"/>
<path opacity="0.5" d="M55.0996 0.25V263.53" stroke="#0E0E0E" stroke-width="0.5" stroke-miterlimit="10"/>
<path opacity="0.5" d="M44.1299 0.25V263.53" stroke="#0E0E0E" stroke-width="0.5" stroke-miterlimit="10"/>
<path opacity="0.5" d="M33.1602 0.25V263.53" stroke="#0E0E0E" stroke-width="0.5" stroke-miterlimit="10"/>
<path opacity="0.5" d="M22.1895 0.25V263.53" stroke="#0E0E0E" stroke-width="0.5" stroke-miterlimit="10"/>
<path opacity="0.5" d="M11.2197 0.25V263.53" stroke="#0E0E0E" stroke-width="0.5" stroke-miterlimit="10"/>
<path opacity="0.5" d="M0.25 0.25V263.53" stroke="#0E0E0E" stroke-width="0.5" stroke-miterlimit="10"/>
</svg>
